<?xml version="1.0" encoding="UTF-8" standalone="no"?>
<!-- Created with Serif DrawPlus 11, 0, 0, 18 (Sep 30, 15:06:09) (http://www.serif.com) -->
<svg version="1.1" xmlns="http://www.w3.org/2000/svg" xmlns:xlink="http://www.w3.org/1999/xlink" width="40.1653" height="34.6653">
	<g id="dp_group001" transform="matrix(1,0,0,1,-175.628,-1897.85)">
		<path id="dp_path002" fill="black" fill-rule="evenodd" stroke="white" stroke-width="2.66667" d="M 176.96,1903.88 C 176.96,1901.28 179.067,1899.18 181.664,1899.18 L 209.756,1899.18 C 212.353,1899.18 214.46,1901.28 214.46,1903.88 L 214.46,1926.47 C 214.46,1929.07 212.353,1931.18 209.756,1931.18 L 181.664,1931.18 C 179.067,1931.18 176.96,1929.07 176.96,1926.47 Z "/>
		<path id="dp_path003" fill="none" fill-rule="evenodd" stroke="white" stroke-width="1.33333" d="M 183.319,1907.8 C 186.732,1907.8 190.108,1907.8 193.524,1907.8"/>
		<path id="dp_path004" fill="none" fill-rule="evenodd" stroke="white" stroke-width="1.33333" d="M 183.319,1910.86 C 186.732,1910.86 190.108,1910.86 193.524,1910.86"/>
		<path id="dp_path005" fill="none" fill-rule="evenodd" stroke="white" stroke-width="1.33333" d="M 183.319,1914.18 C 185.196,1914.18 187.053,1914.18 188.932,1914.18"/>
		<path id="dp_path006" fill="none" fill-rule="evenodd" stroke="white" stroke-width="1.33333" d="M 183.319,1921.07 C 191.252,1921.07 199.1,1921.07 207.043,1921.07"/>
		<path id="dp_path007" fill="none" fill-rule="evenodd" stroke="white" stroke-width="1.33333" d="M 183.319,1924.89 C 191.252,1924.89 199.1,1924.89 207.043,1924.89"/>
		<path id="dp_path008" fill="none" fill-rule="evenodd" stroke="white" stroke-width="1.33333" d="M 196.584,1907.29 L 206.533,1907.29 L 206.533,1914.95 L 196.584,1914.95 Z "/>
	</g>
</svg>