<?xml version="1.0" encoding="UTF-8" standalone="no"?>
<!-- Created with Serif DrawPlus 11, 0, 0, 18 (Sep 30, 15:06:09) (http://www.serif.com) -->
<svg version="1.1" xmlns="http://www.w3.org/2000/svg" xmlns:xlink="http://www.w3.org/1999/xlink" width="40.1653" height="34.6653">
	<g id="selection" transform="matrix(1,0,0,1,-302.399,-1897.85)">
		<path id="dp_path001" fill="black" fill-rule="evenodd" stroke="white" stroke-width="2.66667" d="M 303.731,1903.88 C 303.731,1901.28 305.837,1899.18 308.435,1899.18 L 336.527,1899.18 C 339.124,1899.18 341.231,1901.28 341.231,1903.88 L 341.231,1926.47 C 341.231,1929.07 339.124,1931.18 336.527,1931.18 L 308.435,1931.18 C 305.837,1931.18 303.731,1929.07 303.731,1926.47 Z "/>
		<path id="dp_path002" fill="white" fill-rule="evenodd" stroke="white" stroke-width="1.33333" d="M 311.749,1909.43 L 313.252,1909.43 L 313.252,1929.91 L 311.749,1929.91 Z "/>
		<path id="dp_path003" fill="white" fill-rule="evenodd" stroke="white" stroke-width="1.33333" d="M 318.269,1916.85 L 319.772,1916.85 L 319.772,1929.91 L 318.269,1929.91 Z "/>
		<path id="dp_path004" fill="white" fill-rule="evenodd" stroke="white" stroke-width="1.33333" d="M 324.789,1911.86 L 326.292,1911.86 L 326.292,1929.91 L 324.789,1929.91 Z "/>
		<path id="dp_path005" fill="white" fill-rule="evenodd" stroke="white" stroke-width="1.33333" d="M 331.309,1921.32 L 332.812,1921.32 L 332.812,1929.91 L 331.309,1929.91 Z "/>
	</g>
</svg>