<?xml version="1.0" encoding="UTF-8" standalone="no"?>
<!-- Created with Serif DrawPlus 11, 0, 0, 18 (Sep 30, 15:06:09) (http://www.serif.com) -->
<svg version="1.1" xmlns="http://www.w3.org/2000/svg" xmlns:xlink="http://www.w3.org/1999/xlink" width="782.548" height="767.285">
	<g id="dp_group001" transform="matrix(1,0,0,1,-414.199,-8433.29)">
		<path id="dp_path002" fill="white" fill-rule="evenodd" stroke="white" stroke-width="6.66667" d="M 1083.61,8739.17 C 1144.25,8706.22 1193.41,8727.17 1193.41,8785.97 C 1193.41,8844.77 1144.25,8919.15 1083.61,8952.1 C 1022.98,8985.06 973.823,8964.11 973.823,8905.31 C 973.823,8846.51 1022.98,8772.13 1083.61,8739.17 Z "/>
		<path id="dp_path003" fill="white" fill-rule="evenodd" stroke="white" stroke-width="26.6667" d="M 1000.15,8944.78 C 893.68,8838.75 787.096,8732.61 680.645,8626.6 C 668.78,8525.41 701.688,8453.19 827.195,8447.04 C 938.328,8541.05 1047.46,8642.19 1158.58,8736.18"/>
		<path id="dp_path004" fill="#ab0200" fill-rule="evenodd" stroke="white" stroke-width="6.66667" d="M 1085.28,8754.06 C 1136.42,8726.26 1177.88,8744.33 1177.88,8794.41 C 1177.88,8844.48 1136.42,8907.61 1085.28,8935.41 C 1034.13,8963.2 992.675,8945.14 992.675,8895.06 C 992.675,8844.98 1034.13,8781.85 1085.28,8754.06 Z "/>
		<path id="dp_path005" fill="none" fill-rule="evenodd" stroke="white" stroke-width="26.6667" d="M 1120.45,8794.96 C 1135.11,8800.01 1146.23,8806.31 1145.3,8809.02 C 1144.36,8811.73 1131.72,8809.84 1117.06,8804.79 C 1102.4,8799.75 1091.28,8793.45 1092.21,8790.74 C 1093.15,8788.03 1105.79,8789.92 1120.45,8794.96 Z "/>
		<path id="dp_path006" fill="white" fill-rule="evenodd" stroke="white" stroke-width="6.66667" d="M 832.765,8927.97 C 893.403,8895.01 942.559,8915.97 942.559,8974.77 C 942.559,9033.56 893.403,9107.95 832.765,9140.9 C 772.129,9173.85 722.973,9152.9 722.973,9094.11 C 722.973,9035.31 772.129,8960.93 832.765,8927.97 Z "/>
		<path id="dp_path007" fill="white" fill-rule="evenodd" stroke="white" stroke-width="26.6667" d="M 595.469,8732.05 L 775.092,8602.19 L 991.617,8777.06 L 811.995,8906.91 Z "/>
		<path id="dp_path008" fill="white" fill-rule="evenodd" stroke="white" stroke-width="26.6667" d="M 749.299,9133.58 C 642.831,9027.55 536.247,8921.41 429.796,8815.4 C 417.931,8714.21 450.839,8641.99 576.345,8635.84 C 687.479,8729.85 796.615,8830.99 907.731,8924.98"/>
		<path id="dp_path009" fill="#ab0200" fill-rule="evenodd" stroke="white" stroke-width="6.66667" d="M 834.428,8942.86 C 885.571,8915.06 927.031,8933.13 927.031,8983.2 C 927.031,9033.28 885.571,9096.41 834.428,9124.21 C 783.285,9152 741.825,9133.94 741.825,9083.86 C 741.825,9033.78 783.285,8970.65 834.428,8942.86 Z "/>
		<path id="dp_path010" fill="none" fill-rule="evenodd" stroke="white" stroke-width="26.6667" d="M 869.599,8983.76 C 884.259,8988.81 895.384,8995.1 894.449,8997.82 C 893.515,9000.53 880.873,8998.64 866.215,8993.59 C 851.555,8988.55 840.429,8982.25 841.364,8979.54 C 842.299,8976.82 854.94,8978.71 869.599,8983.76 Z "/>
	</g>
</svg>